<?xml version="1.0" standalone="no"?>
<!DOCTYPE svg PUBLIC "-//W3C//DTD SVG 20010904//EN"
 "http://www.w3.org/TR/2001/REC-SVG-20010904/DTD/svg10.dtd">
<svg version="1.0" xmlns="http://www.w3.org/2000/svg"
 width="200.000000pt" height="200.000000pt" viewBox="0 0 200.000000 200.000000"
 preserveAspectRatio="xMidYMid meet">
<metadata>
Created by potrace 1.11, written by Peter Selinger 2001-2013
</metadata>
<g transform="translate(0.000000,200.000000) scale(0.100000,-0.100000)"
fill="#000000" stroke="none">
<path d="M658 1918 c-32 -11 -58 -24 -58 -29 0 -5 164 -9 400 -9 233 0 400 4
400 9 0 5 -28 19 -62 30 -57 19 -83 21 -342 20 -254 -1 -286 -2 -338 -21z"/>
<path d="M302 1697 c-18 -18 -32 -36 -32 -40 0 -4 329 -7 730 -7 402 0 730 4
730 8 0 4 -15 22 -33 40 l-33 32 -665 0 -665 0 -32 -33z"/>
<path d="M130 1470 c-11 -22 -17 -40 -13 -40 156 -2 1758 1 1760 4 2 2 -4 20
-13 40 l-18 36 -848 0 -848 0 -20 -40z"/>
<path d="M55 1298 c-10 -32 -24 -92 -22 -95 2 -1 145 -3 318 -3 l314 -1 20 25
c11 14 29 39 38 56 l18 30 -341 0 c-264 0 -342 -3 -345 -12z"/>
<path d="M1258 1304 c-3 -3 8 -27 26 -54 l31 -48 323 -4 324 -3 -6 39 c-14 82
14 76 -360 76 -183 0 -335 -2 -338 -6z"/>
<path d="M23 1093 c-9 -3 -13 -26 -13 -64 l0 -59 310 0 311 0 -3 63 -3 62
-295 2 c-162 1 -301 -1 -307 -4z"/>
<path d="M1365 1094 c-6 -2 -8 -27 -5 -62 l5 -57 314 -3 313 -2 -7 57 c-4 32
-9 61 -11 65 -5 8 -592 10 -609 2z"/>
<path d="M16 882 c-3 -5 0 -39 6 -75 l11 -67 328 0 c181 0 329 4 329 8 0 4 -5
13 -11 19 -6 6 -19 35 -29 65 l-17 53 -306 3 c-168 1 -308 -2 -311 -6z"/>
<path d="M1344 835 c-9 -31 -21 -58 -25 -61 -5 -3 -9 -12 -9 -20 0 -12 49 -14
324 -14 l324 0 11 65 c7 36 9 70 6 75 -4 6 -126 10 -310 10 l-303 0 -18 -55z"/>
<path d="M63 652 c3 -16 17 -54 31 -85 l25 -57 874 0 874 0 32 68 c51 112 80
102 -305 102 l-336 0 -41 -35 c-118 -101 -305 -103 -436 -4 l-51 39 -336 0
-336 0 5 -28z"/>
<path d="M182 413 c18 -27 50 -67 71 -90 l40 -43 702 0 703 0 39 44 c21 24 53
64 71 90 l33 46 -846 0 -846 0 33 -47z"/>
<path d="M360 219 c62 -54 190 -127 276 -158 136 -49 238 -64 399 -58 166 6
271 32 410 101 86 42 204 122 205 139 0 4 -298 7 -662 7 l-663 -1 35 -30z"/>
</g>
</svg>
